# xmcd
#
# Track frame offsets:
#	150
#	18327
#	33778
#	54211
#	72981
#	86935
#	102688
#	123828
#	138342
#	152839
#	173976
#	196924
#	208221
#	220619
#	240625
#	260970
#	278400
#
# Disc length: 4001 seconds
#
# Revision: 0
# Processed by: cddbd v1.5.2PL0 Copyright (c) Steve Scherf et al.
# Submitted via: audiograbber 1.83.01
#
DISCID=f50f9f11
DTITLE=Boogie Slam - ALL WORK, NO PLAY live
DYEAR=2004
DGENRE=
TTITLE0=Funky Mama
TTITLE1=Back in the Night
TTITLE2=Shame, Shame, Shame
TTITLE3=Playin´ with my Friends
TTITLE4=Bad is Bad
TTITLE5=Cheque Book
TTITLE6=Going Away
TTITLE7=Hey Rock ´N´ Roll
TTITLE8=Lucky Charme
TTITLE9=Bad Chase of Love
TTITLE10=The Thrill is gone
TTITLE11=The Blues will born Tonight
TTITLE12=Mary had a little Lamb
TTITLE13=Neighbour Woman
TTITLE14=All work, no play
TTITLE15=Crossroads
TTITLE16=Going back home
EXTD=
EXTT0=
EXTT1=
EXTT2=
EXTT3=
EXTT4=
EXTT5=
EXTT6=
EXTT7=
EXTT8=
EXTT9=
EXTT10=
EXTT11=
EXTT12=
EXTT13=
EXTT14=
EXTT15=
EXTT16=
PLAYORDER=
